<?xml version="1.0" encoding="UTF-8"?>
<svg width="27px" height="27px" viewBox="0 0 27 27" version="1.1" xmlns="http://www.w3.org/2000/svg" xmlns:xlink="http://www.w3.org/1999/xlink">
    <!-- Generator: Sketch 49.3 (51167) - http://www.bohemiancoding.com/sketch -->
    <title>我的-帮助-icon</title>
    <desc>Created with Sketch.</desc>
    <defs></defs>
    <g id="Page-1" stroke="none" stroke-width="1" fill="none" fill-rule="evenodd">
        <g id="我的" transform="translate(-24.000000, -635.000000)">
            <g id="我的-帮助-icon" transform="translate(25.000000, 636.000000)">
                <g id="system-help">
                    <path d="M12.500016,0.468752 C5.8667075,0.468752 0.468752,5.8667075 0.468752,12.500016 C0.468752,19.1333245 5.8667075,24.53128 12.500016,24.53128 C19.1333245,24.53128 24.53128,19.1333245 24.53128,12.500016 C24.53128,5.8667075 19.1333245,0.468752 12.500016,0.468752 Z" id="Path" stroke="#70449E"></path>
                    <path d="M11.64064,16.796896 L13.359392,16.796896 L13.359392,18.515648 L11.64064,18.515648 L11.64064,16.796896 Z M12.500016,6.484384 C11.020278,6.484384 9.95680015,7.11548825 9.3471803,8.18970825 C8.94166225,8.90406455 8.7832148,9.70435845 8.77515815,10.4858535 L10.4939102,10.5046523 C10.5100235,9.13502185 11.0390768,8.203136 12.500016,8.203136 C13.7783378,8.203136 14.5061219,8.8422969 14.5061219,9.921888 C14.5061219,10.4482558 14.3100767,10.7732073 13.6843436,11.3747705 C13.627947,11.4284815 13.3996753,11.6460111 13.3405932,11.7024076 C12.17775,12.8169109 11.6433256,13.7702811 11.6433256,15.3654978 L13.3620776,15.3654978 C13.3620776,14.3208189 13.6736014,13.76491 14.5302918,12.9431317 C14.5840028,12.8921063 14.8149601,12.6718912 14.8767278,12.6154946 C15.8086136,11.7212065 16.2275594,11.025649 16.2275594,9.92457355 C16.2248739,7.84058675 14.6833682,6.484384 12.500016,6.484384 Z" id="Shape" fill="#70449E" fill-rule="nonzero"></path>
                </g>
            </g>
        </g>
    </g>
</svg>