<?xml version="1.0" encoding="UTF-8"?>
<svg width="26px" height="26px" viewBox="0 0 26 26" version="1.1" xmlns="http://www.w3.org/2000/svg" xmlns:xlink="http://www.w3.org/1999/xlink">
    <!-- Generator: Sketch 49.3 (51167) - http://www.bohemiancoding.com/sketch -->
    <title>我的-帮助-icon copy</title>
    <desc>Created with Sketch.</desc>
    <defs></defs>
    <g id="Page-1" stroke="none" stroke-width="1" fill="none" fill-rule="evenodd">
        <g id="我的" transform="translate(-24.000000, -569.000000)">
            <g id="我的-帮助-icon-copy" transform="translate(25.000000, 570.000000)">
                <g id="system-help">
                    <path d="M12.031264,0 C5.3979555,0 0,5.3979555 0,12.031264 C0,18.6645725 5.3979555,24.062528 12.031264,24.062528 C18.6645725,24.062528 24.062528,18.6645725 24.062528,12.031264 C24.062528,5.3979555 18.6645725,0 12.031264,0 Z" id="Path" stroke="#70449E"></path>
                    <path d="M9.76431104,7.08497497 C5.92742193,7.78698409 4.64845889,12.2275712 7.70043267,14.2601153 C7.86777975,14.3703049 7.86777975,14.3580577 7.61674191,15.1253971 L7.40160599,15.7824762 L8.1745655,15.3580589 L8.947525,14.9336064 L9.3579164,15.035643 C9.78818823,15.1458327 10.3380528,15.2233748 10.7045832,15.2233748 L10.9237503,15.2233748 L10.8480186,14.925418 C10.2464029,12.6561532 12.3261994,10.4072887 15.0315232,10.4072887 L15.3981225,10.4072887 L15.3224253,10.1379205 C14.7287342,8.0114576 12.2226282,6.63602796 9.76431104,7.08497497 Z M9.42961689,9.07262433 C9.83601152,9.35427504 9.85992317,9.96240059 9.46944666,10.2236158 C8.83596028,10.6480683 8.09487149,9.9011645 8.52118102,9.26445035 C8.70844298,8.97877605 9.15869861,8.88489248 9.42961689,9.07262433 Z M12.696761,9.07262433 C13.3661493,9.53385385 12.8641081,10.5990795 12.1150258,10.3052168 C11.5731893,10.0929905 11.5094134,9.32978061 12.0154169,9.05631823 C12.2146347,8.94612856 12.5254172,8.95428161 12.696761,9.07262433 Z M14.1749419,10.7541991 C12.2744138,11.1092626 10.9555865,12.5867288 11.0313183,14.2845744 C11.1309271,16.5579686 13.7326798,18.125189 16.2308267,17.4232152 L16.5256566,17.3415788 L17.1472216,17.6844656 C17.4898749,17.8762917 17.7767457,18.0150346 17.7847048,17.9986933 C17.7926983,17.978293 17.7249946,17.7333839 17.637307,17.4518038 C17.4381237,16.8232427 17.4341269,16.8681374 17.7010829,16.6722525 C20.705199,14.4641532 18.0676133,10.0317897 14.1749419,10.7541991 Z M14.0992446,12.5867288 C14.2665228,12.7010126 14.3542103,12.9867222 14.2824754,13.1948544 C14.1310809,13.6397072 13.4816764,13.6723547 13.3063013,13.2438432 C13.107118,12.7500015 13.6569825,12.2928662 14.0992446,12.5867288 Z M16.7607419,12.635753 C17.0237011,12.8928387 16.9798746,13.3295738 16.6730888,13.4928112 C16.2029183,13.7376849 15.708905,13.2479374 15.9519149,12.7785901 C16.1113029,12.4765391 16.5216943,12.4030911 16.7607419,12.635753 Z" id="Shape" fill="#70449E" fill-rule="nonzero"></path>
                </g>
            </g>
        </g>
    </g>
</svg>