
<svg width="17px" height="12px" viewBox="0 0 17 12" version="1.1" xmlns="http://www.w3.org/2000/svg" xmlns:xlink="http://www.w3.org/1999/xlink">
    <g id="app" stroke="none" stroke-width="1" fill="none" fill-rule="evenodd">
        <g id="登入" transform="translate(-331.000000, -282.000000)" fill="#7D4C9F" fill-rule="nonzero">
            <g id="眼睛-(2)" transform="translate(331.000000, 282.000000)">
                <path d="M8.5,3 C6.94166666,3 5.66666667,4.275 5.66666667,5.83333333 C5.66666667,7.39166667 6.94166666,8.66666667 8.5,8.66666667 C10.0583333,8.66666667 11.3333333,7.39166667 11.3333333,5.83333333 C11.3333333,4.275 10.0583333,3 8.5,3 Z M8.5,7.95833333 C7.33125,7.95833333 6.375,7.00208333 6.375,5.83333333 C6.375,4.66458334 7.33125,3.70833334 8.5,3.70833334 C9.66875,3.70833334 10.625,4.66458334 10.625,5.83333333 C10.625,7.00208333 9.66875,7.95833333 8.5,7.95833333 Z" id="Shape"></path>
                <path d="M8.5,0 C2.01875,0 0,6 0,6 C0,6 2.23125,12 8.5,12 C14.76875,12 17,6 17,6 C17,6 14.98125,0 8.5,0 Z M8.5,11.2941176 C3.43541666,11.2941176 1.23958334,7.05882353 0.779166661,6 C1.20416666,4.94117647 3.29375,0.705882358 8.5,0.705882358 C13.7416667,0.705882358 15.7958333,4.90588236 16.2208333,6 C15.7604167,7.02352942 13.5291667,11.2941176 8.5,11.2941176 Z" id="Shape"></path>
            </g>
        </g>
    </g>
</svg>