
<svg width="17px" height="8px" viewBox="0 0 17 8" version="1.1" xmlns="http://www.w3.org/2000/svg" xmlns:xlink="http://www.w3.org/1999/xlink">
    <g id="app" stroke="none" stroke-width="1" fill="none" fill-rule="evenodd">
        <g id="注册" transform="translate(-331.000000, -288.000000)" fill="#7D4C9F" fill-rule="nonzero">
            <g id="闭眼" transform="translate(331.000000, 288.000000)">
                <path d="M16.8416222,0.0853034911 C16.6643936,-0.0209037046 16.4517193,0.0499010981 16.3453822,0.226913096 C15.9554793,0.86415627 15.4592393,1.46599705 14.8921078,1.99703301 L14.1477478,2.5634714 C13.9350735,2.70508099 13.6869535,2.8466906 13.4033877,3.02370258 L12.5526905,3.44853136 C12.1982334,3.59014095 11.8083305,3.73175055 11.3829819,3.87336014 L10.496839,4.08577453 C10.000599,4.19198173 9.46891325,4.26278653 8.97267323,4.26278653 L8.05108461,4.26278653 C7.55484458,4.26278653 7.05860457,4.19198173 6.4914731,4.08577453 L5.6053302,3.90876254 C5.1445359,3.76715295 4.75463302,3.66094575 4.43562157,3.51933616 L3.58492439,3.09450738 C3.26591294,2.91749538 3.05323864,2.77588579 2.84056435,2.63427619 L2.13165002,2.03243542 C1.52907284,1.50139944 1.06827854,0.86415627 0.713821383,0.191510687 C0.607484235,0.0144986885 0.394809938,-0.0563060976 0.217581353,0.0499010981 C0.0403527666,0.156108294 -0.0305386544,0.368522685 0.0757984938,0.545534683 C0.394809938,1.18277786 0.855604242,1.74921623 1.35184427,2.3156546 L0.0757984938,3.55473856 C-0.0305386544,3.69634814 -0.0305386544,3.94416495 0.111244204,4.05037214 C0.253027063,4.19198173 0.501147087,4.15657934 0.607484235,4.01496973 L1.8480843,2.81128819 L2.37977004,3.23611697 C2.62789005,3.41312897 2.87601007,3.55473856 3.23046723,3.76715295 L3.69126153,3.97956734 L2.5215529,5.67888247 C2.45066147,5.85589447 2.5215529,6.06830886 2.69878149,6.17451605 C2.87601007,6.24532086 3.08868437,6.17451605 3.15957579,5.99750406 L4.32928442,4.29818893 C4.64829587,4.40439612 5.00275302,4.54600571 5.42810162,4.65221291 L6.34969024,4.8646273 L6.13701594,6.74095443 C6.10157023,6.95336882 6.24335309,7.13038082 6.45602739,7.13038082 C6.63325597,7.16578321 6.81048454,7.02417362 6.84593027,6.81175923 L7.05860457,4.97083449 C7.41306172,5.00623689 7.73207317,5.0416393 8.05108461,5.0416393 L9.00811894,5.0416393 C9.25623895,5.0416393 9.46891325,5.0062369 9.71703327,4.97083449 L9.92970757,6.81175923 C9.96515328,7.02417362 10.1423819,7.16578321 10.3196104,7.13038082 C10.496839,7.09497842 10.6386219,6.91796642 10.6386219,6.74095443 L10.4259476,4.8646273 C10.496839,4.8646273 10.6031762,4.8292249 10.6740676,4.8292249 L11.5956562,4.58140812 C11.8792219,4.51060332 12.1982334,4.40439612 12.4463534,4.29818893 L13.5097249,6.03290645 C13.5806163,6.20991845 13.7932906,6.31612564 13.9705192,6.24532084 C14.1477478,6.17451604 14.2540849,5.96210165 14.1477478,5.78508966 L13.0843763,4.05037214 L13.7223992,3.73175055 C14.0414106,3.55473856 14.2895306,3.37772657 14.5376507,3.23611697 L14.9629992,2.88209299 L16.2035993,4.08577453 C16.3099365,4.22738412 16.5580565,4.26278653 16.6998393,4.12117693 C16.8416222,3.97956734 16.8770679,3.76715295 16.7352851,3.62554336 L15.494685,2.4218618 C16.0618164,1.89082582 16.5226108,1.28898504 16.9125136,0.687144272 C17.0542965,0.403925078 17.0188508,0.191510687 16.8416222,0.0853034911 L16.8416222,0.0853034911 Z" id="Shape"></path>
            </g>
        </g>
    </g>
</svg>