<?xml version="1.0" encoding="UTF-8"?>
<svg width="17px" height="21px" viewBox="0 0 17 21" version="1.1" xmlns="http://www.w3.org/2000/svg" xmlns:xlink="http://www.w3.org/1999/xlink">
    <!-- Generator: Sketch 52.5 (67469) - http://www.bohemiancoding.com/sketch -->
    <title>bell@3x</title>
    <desc>Created with Sketch.</desc>
    <g id="Page-1" stroke="none" stroke-width="1" fill="none" fill-rule="evenodd">
        <g id="首页" transform="translate(-342.000000, -34.000000)">
            <g id="Group" transform="translate(17.000000, 29.000000)">
                <g id="bell" transform="translate(318.000000, 0.000000)">
                    <rect id="Rectangle" x="0" y="0" width="30" height="30"></rect>
                    <path d="M12.8278186,23.4669435 L17.9576217,23.4669435 C17.9576688,23.4724217 17.9580456,23.4778543 17.9580456,23.4833326 C17.9580456,24.8564587 16.8095112,25.9695957 15.3927202,25.9695957 C13.9759291,25.9695957 12.8273947,24.8564587 12.8273947,23.4833326 C12.8273947,23.4778543 12.8277715,23.4724217 12.8278186,23.4669435 Z M23.5831932,20.3591261 C23.8263436,20.7053522 23.8521094,21.1535196 23.6499866,21.5238043 C23.4479108,21.8939978 23.0512018,22.1255913 22.6190235,22.1255913 L8.16632259,22.1255913 C7.73414432,22.1255913 7.33743528,21.8940435 7.13535955,21.5238043 C6.93328383,21.1535652 6.95900255,20.7053978 7.20219999,20.3591717 L9.5109976,17.0721239 C9.5109976,16.4445891 9.5109976,14.0538761 9.5109976,12.9711891 C9.5109976,10.2055804 11.5432482,7.90023696 14.2393341,7.38066957 L14.2393341,6.11779348 C14.2393341,5.50048478 14.755687,5 15.3926731,5 C16.0296591,5 16.546012,5.50048478 16.5460591,6.11779348 L16.5460591,7.38062391 C19.242145,7.90014565 21.2743956,10.2054891 21.2743956,12.9711435 C21.2743956,13.6071696 21.2743956,16.0658587 21.2743956,17.0720783 L23.5831932,20.3591261 Z" id="Combined-Shape" fill="#FFFFFF" fill-rule="nonzero"></path>
                </g>
            </g>
        </g>
    </g>
</svg>