<?xml version="1.0" encoding="UTF-8"?>
<svg width="27px" height="27px" viewBox="0 0 27 27" version="1.1" xmlns="http://www.w3.org/2000/svg" xmlns:xlink="http://www.w3.org/1999/xlink">
    <!-- Generator: Sketch 49.3 (51167) - http://www.bohemiancoding.com/sketch -->
    <title>我的-设置-icon </title>
    <desc>Created with Sketch.</desc>
    <defs></defs>
    <g id="Page-1" stroke="none" stroke-width="1" fill="none" fill-rule="evenodd">
        <g id="我的" transform="translate(-24.000000, -701.000000)">
            <g id="我的-设置-icon-" transform="translate(25.000000, 702.000000)">
                <circle id="Fill-163" stroke="#70449E" cx="12.5" cy="12.5" r="12.5"></circle>
                <path d="M19,13.8348214 L17.4751116,14.2787946 C17.415625,14.4412946 17.3503348,14.6008929 17.2763393,14.7561384 L18.0395089,16.1533482 L16.1518973,18.0409598 L14.7648437,17.2748884 C14.6081473,17.3503348 14.4456473,17.4170759 14.2816964,17.4765625 L13.8348214,19 L11.1651786,19 L10.725558,17.4780134 C10.5616071,17.4199777 10.400558,17.3532366 10.2424107,17.2777902 L8.84665179,18.0395089 L6.95904018,16.1518973 L7.7265625,14.761942 C7.65256696,14.6052455 7.58582589,14.4441964 7.52633929,14.2816964 L6,13.8333705 L6,11.1637277 L7.5234375,10.725558 C7.58292411,10.5616071 7.64966518,10.400558 7.72511161,10.2424107 L6.96049107,8.84810268 L8.84810268,6.96049107 L10.2395089,7.72366071 C10.3962054,7.64821429 10.5587054,7.58147321 10.7226562,7.52198661 L11.1651786,6 L13.8348214,6 L14.2773438,7.52198661 C14.4412946,7.58147321 14.6023438,7.64821429 14.7604911,7.72366071 L16.1518973,6.96049107 L18.0395089,8.84810268 L17.2748884,10.2409598 C17.3503348,10.3976563 17.4170759,10.5587054 17.4751116,10.7212054 L19,11.1651786 L19,13.8348214 Z M12.5,9.40524554 C11.6729911,9.40524554 10.8953125,9.72734375 10.3106027,10.3120536 C9.72589286,10.8967634 9.40379464,11.674442 9.40379464,12.5014509 C9.40379464,13.3284598 9.72589286,14.1061384 10.3106027,14.6908482 C10.8953125,15.275558 11.6729911,15.5976563 12.5,15.5976563 C13.3270089,15.5976563 14.1046875,15.275558 14.6893973,14.6908482 C15.2741071,14.1061384 15.5962054,13.3284598 15.5962054,12.5014509 C15.5962054,11.674442 15.2741071,10.8967634 14.6893973,10.3120536 C14.1046875,9.72734375 13.3270089,9.40524554 12.5,9.40524554 Z" id="Combined-Shape" fill="#70449E"></path>
            </g>
        </g>
    </g>
</svg>