<?xml version="1.0" encoding="UTF-8"?>
<svg width="34px" height="34px" viewBox="0 0 34 34" version="1.1" xmlns="http://www.w3.org/2000/svg" xmlns:xlink="http://www.w3.org/1999/xlink">
    <!-- Generator: Sketch 49.3 (51167) - http://www.bohemiancoding.com/sketch -->
    <title>首页icon@3x</title>
    <desc>Created with Sketch.</desc>
    <defs>
        <linearGradient x1="29.0672881%" y1="-16.1904645%" x2="161.389654%" y2="224.629855%" id="linearGradient-1">
            <stop stop-color="#000000" stop-opacity="0.120103034" offset="0%"></stop>
            <stop stop-color="#9F9F9F" stop-opacity="0.796676857" offset="100%"></stop>
        </linearGradient>
    </defs>
    <g id="Page-1" stroke="none" stroke-width="1" fill="none" fill-rule="evenodd">
        <g id="iPhone-8" transform="translate(-47.000000, -89.000000)">
            <g id="Tab-Bar-Copy-3" transform="translate(0.000000, 80.000000)">
                <g id="导航栏" transform="translate(47.000000, 9.000000)">
                    <g id="首页">
                        <g id="首页icon">
                            <circle id="Oval" fill="url(#linearGradient-1)" cx="17" cy="17" r="17"></circle>
                            <path d="M23.3207829,17.1686901 C23.1429819,17.1686901 22.9986796,17.3129923 22.9986796,17.4907933 L22.9986796,24.5989684 C22.9986796,25.3801762 22.3630625,26.0157933 21.5818547,26.0157933 L19.079327,26.0157933 L19.079327,21.082889 C19.079327,20.905088 18.9350248,20.7607858 18.7572238,20.7607858 L15.2389971,20.7607858 C15.0611961,20.7607858 14.9168938,20.905088 14.9168938,21.082889 L14.9168938,26.0157933 L12.4135072,26.0157933 C11.6327288,26.0157933 10.9975412,25.3801762 10.9975412,24.5989684 L10.9975412,17.4907933 C10.9975412,17.3129923 10.8532389,17.1686901 10.6754379,17.1686901 C10.4976369,17.1686901 10.3533346,17.3129923 10.3533346,17.4907933 L10.3533346,24.5989684 C10.3533346,25.7353487 11.2775563,26.6599998 12.4135072,26.6599998 L21.5818547,26.6599998 C22.7182351,26.6599998 23.6428862,25.7353487 23.6428862,24.5989684 L23.6428862,17.4907933 C23.6428862,17.3129923 23.4985839,17.1686901 23.3207829,17.1686901 L23.3207829,17.1686901 Z M15.5611003,21.4049923 L18.4351205,21.4049923 L18.4351205,26.0153638 L15.5611003,26.0153638 L15.5611003,21.4049923 Z M26.5035927,14.7846964 L24.1754303,13.1058941 C23.8709353,12.885146 23.6033749,12.3637682 23.6033749,11.9901284 L23.6033749,9.2294886 C23.6033749,8.5728274 23.0691129,8.03856544 22.4128812,8.03856544 L21.5955978,8.03856544 C20.9397955,8.03856544 20.4063925,8.5728274 20.4063925,9.2294886 L20.4063925,10.1468387 C20.4063925,10.2645138 20.3789064,10.3177682 20.3759001,10.3220629 C20.3660222,10.3220629 20.3106205,10.3186271 20.2109832,10.246476 L17.8033686,8.50926569 C17.5113283,8.29753647 17.2755487,8.126607 17.2248711,8.08752513 C17.1625978,8.03384126 17.0771331,7.99776569 16.9976809,8.00034252 C16.9225235,7.99604781 16.8349114,8.03255284 16.7726381,8.08666619 C16.7172364,8.1296133 16.4256255,8.34091304 16.0820487,8.59000624 L7.49348703,14.7846964 C7.23580442,14.9710868 7.06616336,15.2468072 7.01548578,15.5620389 C6.9648082,15.8768412 7.03953616,16.1916435 7.22463817,16.4467493 L7.55146562,16.9019886 C7.77135479,17.2077719 8.12223262,17.3829961 8.5139102,17.3829961 L8.51433967,17.3829961 C8.55556889,17.3829961 8.59722758,17.3808488 8.63888627,17.3769835 C8.69557645,17.3714004 8.7496898,17.3512153 8.79607267,17.3177165 L16.9981104,11.4000352 L25.2014366,17.3177165 C25.2478194,17.3512153 25.3019328,17.3714004 25.358623,17.3769835 C25.4002816,17.3808488 25.4419403,17.3829961 25.483599,17.3829961 C25.876565,17.3829961 26.2270134,17.2073425 26.4434668,16.902418 L26.7720121,16.4471787 C27.1563887,15.9142052 27.0357073,15.1686435 26.5035927,14.7846964 L26.5035927,14.7846964 Z M26.2497753,16.0701032 L25.9199416,16.5274898 C25.8271759,16.6571901 25.6747136,16.7340654 25.4999189,16.7387896 L17.189225,10.743374 L17.1887955,10.7438035 C17.0809983,10.6652103 16.9135046,10.662204 16.8018421,10.7476687 L8.4975903,16.7387896 C8.32236612,16.7340654 8.16904497,16.6571901 8.07456134,16.5257719 L7.74730441,16.0696737 C7.66226915,15.9528576 7.62834094,15.8089848 7.65153237,15.6642531 C7.67472381,15.5190918 7.75245807,15.3923979 7.8705626,15.3073626 L16.4599832,9.11224301 C16.7129416,8.92842941 16.8821532,8.8056007 16.9976809,8.71970649 C17.0956003,8.79185762 17.2326016,8.89063596 17.4250046,9.03064352 L19.8343371,10.7695717 C20.0160033,10.8997014 20.1980991,10.9662695 20.3759001,10.9662695 C20.7117464,10.9662695 21.0505991,10.7128815 21.0505991,10.1468387 L21.0505991,9.2294886 C21.0505991,8.92799994 21.2949681,8.68277198 21.5955978,8.68277198 L22.4128812,8.68277198 C22.7139404,8.68277198 22.9591683,8.92799994 22.9591683,9.2294886 L22.9591683,11.9901284 C22.9591683,12.5681964 23.3276545,13.2875604 23.7983547,13.6281309 L26.1269466,15.3073626 C26.3708862,15.4834458 26.4258585,15.8257342 26.2497753,16.0701032 L26.2497753,16.0701032 Z" id="Fill-183" fill="#FFFFFF"></path>
                        </g>
                    </g>
                </g>
            </g>
        </g>
    </g>
</svg>