<?xml version="1.0" encoding="UTF-8"?>
<svg width="34px" height="34px" viewBox="0 0 34 34" version="1.1" xmlns="http://www.w3.org/2000/svg" xmlns:xlink="http://www.w3.org/1999/xlink">
    <!-- Generator: Sketch 49.3 (51167) - http://www.bohemiancoding.com/sketch -->
    <title>我的icon@3x</title>
    <desc>Created with Sketch.</desc>
    <defs>
        <linearGradient x1="50%" y1="0%" x2="50%" y2="100%" id="linearGradient-1">
            <stop stop-color="#E99AA9" offset="0%"></stop>
            <stop stop-color="#70459F" offset="99.3105824%"></stop>
            <stop stop-color="#69409E" offset="100%"></stop>
        </linearGradient>
    </defs>
    <g id="Page-1" stroke="none" stroke-width="1" fill="none" fill-rule="evenodd">
        <g id="iPhone-8" transform="translate(-295.000000, -9.000000)">
            <g id="Tab-Bar-Copy-2">
                <g id="导航栏" transform="translate(47.000000, 9.000000)">
                    <g id="我的" transform="translate(248.000000, 0.000000)">
                        <g id="我的icon">
                            <circle id="Oval" fill="url(#linearGradient-1)" cx="17" cy="17" r="17"></circle>
                            <g id="我的-(4)" transform="translate(7.000000, 8.000000)" fill="#FFFFFF" fill-rule="nonzero">
                                <path d="M9.99972313,9.99997925 C7.97757113,9.9999281 6.15455595,8.7817348 5.3807188,6.91342234 C4.60688165,5.04510988 5.03461032,2.89459543 6.46446213,1.4646276 C7.72757046,0.201461935 9.56859098,-0.291860425 11.2940291,0.170490282 C13.0194672,0.632840989 14.3671877,1.98062269 14.8295175,3.70613905 C15.2918472,5.43165542 14.7985472,7.27275945 13.5354388,8.53592508 C12.5997073,9.47661789 11.3265243,10.0038121 9.99972313,9.99997925 Z M9.99972313,0.795923876 C7.68062465,0.795923876 5.79578874,2.68198216 5.79578874,5.00004897 C5.79578874,7.31811578 7.68176147,9.20417406 9.99972313,9.20417406 C12.3176848,9.20417406 14.2034302,7.31834316 14.2034302,5.00004897 C14.2034302,2.68175478 12.3179122,0.795923876 9.99972313,0.795923876 Z" id="Shape"></path>
                                <path d="M19.5245952,17.8510662 C19.3985127,17.8510662 19.2775943,17.8111489 19.1884406,17.7400957 C19.0992868,17.6690425 19.0492008,17.5726737 19.0492008,17.4721893 C19.0492008,15.642539 18.1106364,13.9215722 16.4068229,12.6258134 C14.6964897,11.3244256 12.4213879,10.6099721 9.99986464,10.6099721 C7.5783414,10.6099721 5.30323964,11.3244256 3.59317806,12.6255969 C1.88936455,13.9213557 0.950800174,15.642539 0.950800174,17.4730553 C0.950744518,17.6822719 0.737919498,17.8518519 0.475405776,17.8518519 C0.212892053,17.8518519 6.70333724e-05,17.6822719 1.13768879e-05,17.4730553 C-0.00201578005,16.448801 0.266881131,15.4357085 0.789166068,14.4998465 C1.29807702,13.5876033 2.02792544,12.7643924 2.93686215,12.0774162 C3.85683218,11.3783741 4.9355224,10.8254553 6.11521327,10.4482459 C8.60887823,9.65305385 11.3908511,9.65305385 13.884516,10.4482459 C15.0642069,10.8254553 16.1428971,11.3783741 17.0628672,12.0774162 C17.9718039,12.7643924 18.7016523,13.5876033 19.2105632,14.4998465 C19.7329416,15.4356923 20.0019312,16.4487854 19.9999896,17.4730553 C19.9993904,17.681965 19.7867245,17.8510667 19.5245952,17.8510662 Z" id="Shape"></path>
                            </g>
                        </g>
                    </g>
                </g>
            </g>
        </g>
    </g>
</svg>