<?xml version="1.0" encoding="UTF-8"?>
<svg width="34px" height="34px" viewBox="0 0 34 34" version="1.1" xmlns="http://www.w3.org/2000/svg" xmlns:xlink="http://www.w3.org/1999/xlink">
    <!-- Generator: Sketch 49.3 (51167) - http://www.bohemiancoding.com/sketch -->
    <title>还钱icon@3x</title>
    <desc>Created with Sketch.</desc>
    <defs>
        <linearGradient x1="29.0672881%" y1="-16.1904645%" x2="161.389654%" y2="224.629855%" id="linearGradient-1">
            <stop stop-color="#000000" stop-opacity="0.120103034" offset="0%"></stop>
            <stop stop-color="#9F9F9F" stop-opacity="0.796676857" offset="100%"></stop>
        </linearGradient>
    </defs>
    <g id="Page-1" stroke="none" stroke-width="1" fill="none" fill-rule="evenodd">
        <g id="iPhone-8" transform="translate(-171.000000, -89.000000)">
            <g id="Tab-Bar-Copy-3" transform="translate(0.000000, 80.000000)">
                <g id="导航栏" transform="translate(47.000000, 9.000000)">
                    <g id="还钱" transform="translate(124.000000, 0.000000)">
                        <g id="还钱icon">
                            <circle id="Oval" fill="url(#linearGradient-1)" cx="17" cy="17" r="17"></circle>
                            <g id="钱夹" transform="translate(8.000000, 8.000000)" fill="#FFFFFF" fill-rule="nonzero">
                                <path d="M14.9918049,3.75699512 L14.9918049,1.70165854 C14.9918049,0.768819512 14.2359805,0.0122926829 13.302439,0.0122926829 L1.70236098,0.0122926829 C0.769521951,0.0122926829 0.012995122,0.768819512 0.012995122,1.70165854 L0.012995122,17.4243512 C0.012995122,17.7355317 0.265170732,17.9877073 0.57635122,17.9877073 L17.4250537,17.9877073 C17.7362341,17.9877073 17.9884098,17.7355317 17.9884098,17.4243512 L17.9884098,4.32035122 C17.9884098,4.00917073 17.7362341,3.75699512 17.4250537,3.75699512 L14.9918049,3.75699512 Z M13.3017366,0.761092683 C13.8201366,0.761092683 14.2423024,1.18325854 14.2423024,1.70165854 L14.2423024,3.75699512 L0.761092683,3.75699512 L0.761092683,1.70165854 C0.761092683,1.18325854 1.18325854,0.761092683 1.70165854,0.761092683 L13.3017366,0.761092683 Z M16.2389073,17.2389073 L1.76179512,17.2389073 C1.20951037,17.2389073 0.761795122,16.7911921 0.761795122,16.2389073 L0.761795122,4.50649756 L16.2389073,4.50649756 C16.7911921,4.50649756 17.2389073,4.95421281 17.2389073,5.50649756 L17.2389073,16.2389073 C17.2389073,16.7911921 16.7911921,17.2389073 16.2389073,17.2389073 Z" id="Shape"></path>
                                <path d="M11.9959024,10.8727024 C11.9959024,11.9066927 12.8346146,12.7447024 13.8686049,12.7447024 C14.9025951,12.7447024 15.7406049,11.9066927 15.7406049,10.8727024 C15.7406049,9.8387122 14.9025951,9 13.8686049,9 C12.8346146,9 11.9959024,9.83800976 11.9959024,10.8727024 Z M14.9918049,10.8727024 C14.9918049,11.4915512 14.4881561,11.9952 13.8686049,11.9952 C13.2490537,11.9952 12.7447024,11.4915512 12.7447024,10.8727024 C12.7447024,10.2531512 13.2490537,9.74950244 13.8686049,9.74950244 C14.4881561,9.74950244 14.9918049,10.2531512 14.9918049,10.8727024 Z" id="Shape"></path>
                            </g>
                        </g>
                    </g>
                </g>
            </g>
        </g>
    </g>
</svg>