
<svg width="137px" height="93px" viewBox="0 0 137 93" version="1.1" xmlns="http://www.w3.org/2000/svg" xmlns:xlink="http://www.w3.org/1999/xlink">
    <g id="app" stroke="none" stroke-width="1" fill="none" fill-rule="evenodd">
        <g id="帮助中心" transform="translate(-113.000000, -204.000000)" fill="#BFBFBF">
            <g id="编组-3" transform="translate(112.041667, 204.000000)">
                <g id="编组-2" transform="translate(0.958333, 0.000000)">
                    <ellipse id="椭圆形" cx="3.87735849" cy="29.7083333" rx="3.87735849" ry="3.875"></ellipse>
                    <g id="表情-等待" transform="translate(10.339623, 0.000000)">
                        <g id="编组">
                            <path d="M22.8418153,25.8333333 L29.7287736,25.8333333 C31.868877,25.8333333 33.6037736,24.0984367 33.6037736,21.9583333 C33.6037736,19.8182299 31.868877,18.0833333 29.7287736,18.0833333 L27.6479875,18.0833333 C36.112659,7.04737204 49.4577584,0 64.6226415,0 C90.5455526,0 111.150943,20.5928571 111.150943,46.5 C111.150943,56.8609108 107.855319,66.3718552 102.241943,74.0555556 L85.7303459,74.0555556 C83.5902425,74.0555556 81.8553459,75.7904521 81.8553459,77.9305556 C81.8553459,80.070659 83.5902425,81.8055556 85.7303459,81.8055556 L95.0842818,81.8055556 C86.9541036,88.7993079 76.3307272,93 64.6226415,93 C38.6997305,93 18.0943396,72.4071429 18.0943396,46.5 C18.0943396,39.0506515 19.7979819,32.0406851 22.8418175,25.8333288 Z M43.5163249,31.508109 L44.1157233,33.3052105 C46.5133169,37.4984472 48.9109106,39.8945825 52.5073011,40.4936163 C50.1097074,43.4887854 49.510309,47.6820221 50.7091058,51.8752588 L51.3085042,53.6723602 L50.1097074,54.2713941 L51.9079027,59.6626984 L75.8838392,50.6771912 L74.085644,45.8849206 L71.6880503,46.4839545 L71.0886519,44.0878192 C69.8898551,39.8945825 66.2934646,37.4984472 62.6970741,37.4984472 C65.0946678,34.5032781 66.2934646,30.3100414 65.0946678,26.7158385 L63.2964725,23.7206694 L65.0946678,23.1216356 L63.8958709,18.3293651 L39.9199344,26.7158385 L41.7181296,32.1071429 L43.5163249,31.508109 Z M101.845283,43.5230159 C102.509973,44.8515873 103.174663,43.5230159 104.504043,43.5230159 L105.168733,42.8587302 C105.168733,41.5301587 104.504043,39.5373016 103.839353,38.8730159 L91.2102426,31.565873 C91.2102426,31.565873 91.2102426,31.565873 90.5455526,31.565873 L89.8808625,31.565873 C89.8808625,31.565873 89.8808625,31.565873 89.2161725,31.565873 C89.2161725,31.565873 88.5514825,31.565873 88.5514825,32.2301587 L80.5752022,42.8587302 C79.9105121,44.1873016 80.5752022,45.515873 81.2398922,46.1801587 C82.5692722,46.8444444 83.8986523,46.8444444 84.5633423,45.515873 L89.8808625,38.8730159 C91.2102426,48.8373016 87.2221024,60.1301587 77.916442,65.4444444 C67.9460916,71.4230159 54.6522911,70.7587302 45.3466307,62.1230159 C44.0172507,61.4587302 42.6878706,61.4587302 42.0231806,62.1230159 C41.3584906,63.4515873 41.3584906,65.4444444 42.6878706,66.1087302 C53.3229111,76.0730159 68.6107817,76.7373016 80.5752022,70.0944444 C90.5455526,62.7873016 96.5277628,51.4944444 93.8690027,38.8730159 L101.845283,43.5230159 Z M68.6910582,44.6756112 L69.2904567,47.1673645 L54.3054963,52.7738095 L53.7060979,50.2820562 C52.5073011,45.9214879 54.3054963,41.5609195 58.5012852,40.3150429 C62.6970741,39.0691662 66.892863,40.3150429 68.6910582,44.6756112 Z M47.7121138,32.6818178 L45.9139185,30.8159269 L60.2994804,25.218254 L60.8988789,27.7061086 C63.2964725,32.0598542 60.8988789,36.4135998 56.70309,38.9014544 C53.1066995,39.523418 48.9109106,37.0355634 47.7121138,32.6818178 Z" id="形状结合" fill-rule="nonzero"></path>
                            <rect id="矩形复制-3" x="92.1949686" y="66.3055556" width="34.4654088" height="7.75" rx="3.875"></rect>
                            <rect id="矩形复制-5" x="11.2012579" y="10.3333333" width="34.4654088" height="7.75" rx="3.875"></rect>
                            <rect id="矩形复制-4" x="69.7924528" y="81.8055556" width="34.4654088" height="7.75" rx="3.875"></rect>
                            <rect id="矩形复制-6" x="0" y="25.8333333" width="34.4654088" height="7.75" rx="3.875"></rect>
                        </g>
                    </g>
                </g>
            </g>
        </g>
    </g>
</svg>